<svg xmlns="http://www.w3.org/2000/svg" xmlns:xlink="http://www.w3.org/1999/xlink" viewBox="0 0 278.47 212.17"><defs><style>.cls-1{fill:none;}.cls-2{fill:#553285;}.cls-3{fill:#36175e;}.cls-4{fill:#25064c;}.cls-5{clip-path:url(#clip-path);}.cls-6{fill:#7b52ab;}</style><clipPath id="clip-path"><rect class="cls-1" x="85.3" y="106.98" width="107.86" height="84.41"/></clipPath></defs><title>Lambda-Sharp-logo</title><g id="Layer_2" data-name="Layer 2"><g id="Layer_1-2" data-name="Layer 1"><g id="surface1"><path class="cls-2" d="M0,86.19H278.47v126H0Z"/><path class="cls-3" d="M278.47,86.19V53a13.25,13.25,0,0,0-13.26-13.26H13.26A13.25,13.25,0,0,0,0,53V86.19Z"/><path class="cls-4" d="M106.08,39.78V13.26h59.67V39.78H179V13.26A13.25,13.25,0,0,0,165.76,0H106.08A13.25,13.25,0,0,0,92.82,13.26V39.78Z"/><path class="cls-4" d="M39.78,72.93H79.56v59.67H39.78Z"/><path class="cls-4" d="M198.91,72.93h39.78v59.67H198.91Z"/><path class="cls-3" d="M39.78,106.08H79.56v13.26H39.78Z"/><path class="cls-3" d="M198.91,106.08h39.78v13.26H198.91Z"/><g id="Lambda_v2" data-name="Lambda v2"><g class="cls-5"><g class="cls-5"><path class="cls-6" d="M193.17,175.77c-1.89,3.31-7.57,15.44-7.57,15.44l-26.2.18-42.34-68.51H85.3l8-15.45,31.1-.44,43.28,68.75Z"/><path class="cls-6" d="M134,162.88l-20.41,28.5c-5.26-.27-14.33-.07-20.08-.07l31.33-43.84Z"/></g></g></g></g></g></g></svg>